<?xml version="1.0" encoding="UTF-8"?>
<svg clip-rule="evenodd" fill-rule="evenodd" stroke-linejoin="round" stroke-miterlimit="1.4142" version="1.1" viewBox="0 0 246 88" xml:space="preserve" xmlns="http://www.w3.org/2000/svg">
    <g transform="translate(-190)">
        <path d="m202.13 7.78v5.12h6.27v-5.12h1.59v11.91h-1.59v-5.46h-6.27v5.46h-1.59v-11.91h1.59z" fill-rule="nonzero"/>
        <path d="m212.28 11.4c0.24-0.75 0.6-1.42 1.08-1.99 0.48-0.58 1.07-1.04 1.78-1.38 0.71-0.35 1.54-0.52 2.49-0.52 0.94 0 1.77 0.17 2.49 0.52 0.71 0.35 1.31 0.81 1.78 1.38 0.48 0.58 0.84 1.24 1.08 1.99s0.36 1.53 0.36 2.34-0.12 1.59-0.36 2.34-0.6 1.42-1.08 1.99c-0.48 0.58-1.07 1.04-1.78 1.37-0.71 0.34-1.54 0.51-2.49 0.51s-1.77-0.17-2.49-0.51c-0.71-0.34-1.31-0.8-1.78-1.37-0.48-0.58-0.84-1.24-1.08-1.99s-0.36-1.53-0.36-2.34c0.01-0.81 0.13-1.59 0.36-2.34zm1.46 4.12c0.16 0.58 0.4 1.11 0.73 1.58s0.76 0.84 1.28 1.13c0.52 0.28 1.15 0.43 1.87 0.43s1.35-0.14 1.87-0.43c0.52-0.28 0.95-0.66 1.28-1.13s0.58-0.99 0.73-1.58c0.16-0.58 0.23-1.18 0.23-1.78s-0.08-1.19-0.23-1.78c-0.16-0.58-0.4-1.11-0.73-1.58s-0.76-0.84-1.28-1.13c-0.52-0.28-1.15-0.43-1.87-0.43s-1.35 0.14-1.87 0.43c-0.52 0.28-0.95 0.66-1.28 1.13s-0.58 0.99-0.73 1.58c-0.16 0.58-0.23 1.18-0.23 1.78s0.08 1.19 0.23 1.78z" fill-rule="nonzero"/>
        <path d="m232.47 9.47c-0.61-0.42-1.33-0.63-2.16-0.63-0.71 0-1.32 0.13-1.83 0.4s-0.92 0.63-1.25 1.08-0.57 0.96-0.73 1.54-0.23 1.18-0.23 1.8c0 0.68 0.08 1.32 0.23 1.93 0.16 0.61 0.4 1.13 0.73 1.58s0.75 0.81 1.26 1.08c0.51 0.26 1.12 0.4 1.83 0.4 0.52 0 0.99-0.09 1.39-0.26 0.41-0.17 0.76-0.41 1.05-0.72s0.53-0.67 0.69-1.09c0.17-0.42 0.27-0.88 0.3-1.37h1.58c-0.16 1.5-0.67 2.67-1.55 3.5s-2.08 1.25-3.6 1.25c-0.92 0-1.73-0.16-2.42-0.48s-1.26-0.75-1.72-1.31-0.8-1.21-1.03-1.97-0.34-1.57-0.34-2.44 0.12-1.68 0.37-2.44c0.24-0.76 0.6-1.42 1.08-1.99 0.47-0.57 1.06-1.01 1.77-1.34s1.51-0.49 2.43-0.49c0.62 0 1.21 0.08 1.77 0.25s1.05 0.41 1.48 0.73 0.79 0.73 1.08 1.21 0.48 1.04 0.57 1.67h-1.58c-0.17-0.84-0.57-1.47-1.17-1.89z" fill-rule="nonzero"/>
        <path d="m238.9 7.78v5.12h6.27v-5.12h1.59v11.91h-1.59v-5.46h-6.27v5.46h-1.59v-11.91h1.59z" fill-rule="nonzero"/>
        <path d="m255.32 9.41c-0.53-0.38-1.2-0.58-2.03-0.58-0.33 0-0.66 0.03-0.98 0.1s-0.61 0.18-0.86 0.33c-0.25 0.16-0.45 0.36-0.6 0.63-0.15 0.26-0.23 0.59-0.23 0.98 0 0.37 0.11 0.66 0.33 0.89s0.51 0.41 0.87 0.56 0.77 0.26 1.23 0.36 0.92 0.2 1.39 0.31 0.94 0.24 1.39 0.39c0.46 0.15 0.86 0.35 1.23 0.61 0.36 0.26 0.65 0.58 0.87 0.97s0.33 0.88 0.33 1.47c0 0.63-0.14 1.18-0.43 1.63-0.28 0.45-0.65 0.82-1.09 1.1s-0.94 0.49-1.49 0.62-1.1 0.19-1.64 0.19c-0.67 0-1.3-0.08-1.89-0.25-0.6-0.17-1.12-0.42-1.57-0.76s-0.81-0.77-1.07-1.3-0.39-1.15-0.39-1.88h1.5c0 0.5 0.1 0.93 0.29 1.29s0.45 0.66 0.77 0.89 0.69 0.41 1.11 0.52 0.86 0.17 1.3 0.17c0.36 0 0.71-0.03 1.08-0.1 0.36-0.07 0.69-0.18 0.98-0.34s0.52-0.38 0.7-0.66 0.27-0.63 0.27-1.07c0-0.41-0.11-0.74-0.33-1s-0.51-0.46-0.87-0.63c-0.36-0.16-0.77-0.29-1.23-0.39s-0.92-0.2-1.39-0.31c-0.47-0.1-0.94-0.23-1.39-0.37-0.46-0.14-0.87-0.32-1.23-0.55s-0.65-0.52-0.87-0.88-0.33-0.81-0.33-1.36c0-0.6 0.12-1.12 0.37-1.56 0.24-0.44 0.57-0.8 0.98-1.08s0.87-0.5 1.38-0.63c0.52-0.14 1.05-0.21 1.59-0.21 0.61 0 1.18 0.07 1.7 0.22 0.52 0.14 0.98 0.37 1.38 0.68 0.39 0.31 0.71 0.7 0.93 1.18 0.23 0.47 0.35 1.04 0.38 1.69h-1.5c-0.1-0.87-0.41-1.49-0.94-1.87z" fill-rule="nonzero"/>
        <path d="m267.37 9.47c-0.61-0.42-1.33-0.63-2.16-0.63-0.71 0-1.32 0.13-1.83 0.4s-0.92 0.63-1.25 1.08-0.57 0.96-0.73 1.54-0.23 1.18-0.23 1.8c0 0.68 0.08 1.32 0.23 1.93 0.16 0.61 0.4 1.13 0.73 1.58s0.75 0.81 1.26 1.08c0.51 0.26 1.12 0.4 1.83 0.4 0.52 0 0.99-0.09 1.39-0.26 0.41-0.17 0.76-0.41 1.05-0.72s0.53-0.67 0.69-1.09c0.17-0.42 0.27-0.88 0.3-1.37h1.58c-0.16 1.5-0.67 2.67-1.55 3.5s-2.08 1.25-3.6 1.25c-0.92 0-1.73-0.16-2.42-0.48s-1.26-0.75-1.72-1.31-0.8-1.21-1.03-1.97-0.34-1.57-0.34-2.44 0.12-1.68 0.37-2.44c0.24-0.76 0.6-1.42 1.08-1.99 0.47-0.57 1.06-1.01 1.77-1.34s1.51-0.49 2.43-0.49c0.62 0 1.21 0.08 1.77 0.25s1.05 0.41 1.48 0.73 0.79 0.73 1.08 1.21 0.48 1.04 0.57 1.67h-1.58c-0.18-0.84-0.57-1.47-1.17-1.89z" fill-rule="nonzero"/>
        <path d="m273.8 7.78v5.12h6.27v-5.12h1.59v11.91h-1.59v-5.46h-6.27v5.46h-1.59v-11.91h1.59z" fill-rule="nonzero"/>
        <path d="m292.54 18.82c-0.81 0.76-1.97 1.14-3.47 1.14-1.53 0-2.73-0.36-3.59-1.09s-1.29-1.89-1.29-3.48v-7.61h1.59v7.61c0 1.07 0.28 1.88 0.85 2.43s1.38 0.83 2.45 0.83c1.01 0 1.78-0.28 2.31-0.83s0.79-1.36 0.79-2.43v-7.61h1.59v7.61c-0.01 1.52-0.41 2.67-1.23 3.43z" fill-rule="nonzero"/>
        <path d="m297.88 7.78v10.58h6.31v1.34h-7.89v-11.92h1.58z" fill-rule="nonzero"/>
        <path d="m313.8 7.78v1.34h-6.64v3.79h6.19v1.33h-6.19v4.12h6.69v1.34h-8.27v-11.92h8.22z" fill-rule="nonzero"/>
        <path d="m328.22 7.78v1.34h-6.24v3.79h5.47v1.33h-5.47v5.46h-1.59v-11.92h7.83z" fill-rule="nonzero"/>
        <path d="m338.27 18.82c-0.81 0.76-1.97 1.14-3.47 1.14-1.53 0-2.73-0.36-3.59-1.09s-1.29-1.89-1.29-3.48v-7.61h1.59v7.61c0 1.07 0.28 1.88 0.85 2.43s1.38 0.83 2.45 0.83c1.01 0 1.78-0.28 2.31-0.83s0.79-1.36 0.79-2.43v-7.61h1.59v7.61c-0.02 1.52-0.42 2.67-1.23 3.43zm-4.39-13.69v1.74h-1.5v-1.74h1.5zm3.14 0v1.74h-1.5v-1.74h1.5z" fill-rule="nonzero"/>
        <path d="m347.62 7.78c1.13 0 2.02 0.28 2.66 0.83 0.64 0.56 0.96 1.32 0.96 2.28 0 0.72-0.16 1.36-0.49 1.9s-0.85 0.92-1.58 1.12v0.03c0.34 0.07 0.63 0.18 0.84 0.33 0.22 0.16 0.39 0.34 0.52 0.56s0.22 0.46 0.28 0.73 0.11 0.55 0.14 0.83c0.02 0.29 0.04 0.58 0.05 0.88s0.04 0.6 0.08 0.88c0.04 0.29 0.11 0.56 0.19 0.83 0.08 0.26 0.21 0.49 0.38 0.69h-1.77c-0.11-0.12-0.19-0.29-0.23-0.5s-0.06-0.45-0.07-0.71-0.02-0.54-0.03-0.84-0.04-0.6-0.1-0.88c-0.04-0.29-0.1-0.56-0.17-0.83-0.07-0.26-0.17-0.49-0.32-0.68-0.14-0.19-0.33-0.35-0.57-0.47s-0.55-0.18-0.93-0.18h-3.87v5.09h-1.59v-11.89h5.62zm0.34 5.41c0.33-0.06 0.63-0.17 0.88-0.33s0.45-0.38 0.6-0.65 0.23-0.63 0.23-1.06c0-0.6-0.17-1.09-0.5-1.47s-0.87-0.57-1.62-0.57h-3.94v4.15h3.3c0.36 0.01 0.71-0.02 1.05-0.07z" fill-rule="nonzero"/>
        <path d="m199.28 28.58v-1.34h9.53v1.34h-3.97v10.58h-1.58v-10.58h-3.98z" fill-rule="nonzero"/>
        <path d="m218.35 27.24v1.34h-6.64v3.79h6.19v1.33h-6.19v4.12h6.69v1.34h-8.27v-11.92h8.22z" fill-rule="nonzero"/>
        <path d="m227.51 28.93c-0.61-0.42-1.33-0.63-2.16-0.63-0.71 0-1.32 0.13-1.83 0.4s-0.92 0.63-1.25 1.08-0.57 0.96-0.73 1.54-0.23 1.18-0.23 1.8c0 0.68 0.08 1.32 0.23 1.93 0.16 0.61 0.4 1.13 0.73 1.58s0.75 0.81 1.26 1.08c0.51 0.26 1.12 0.4 1.83 0.4 0.52 0 0.99-0.09 1.39-0.26 0.41-0.17 0.76-0.41 1.05-0.72s0.53-0.67 0.69-1.09c0.17-0.42 0.27-0.88 0.3-1.37h1.58c-0.16 1.5-0.67 2.67-1.55 3.5s-2.08 1.25-3.6 1.25c-0.92 0-1.73-0.16-2.42-0.48s-1.26-0.75-1.72-1.31-0.8-1.21-1.03-1.97-0.34-1.57-0.34-2.44 0.12-1.68 0.37-2.44c0.24-0.76 0.6-1.42 1.08-1.99 0.47-0.57 1.06-1.01 1.77-1.34s1.51-0.49 2.43-0.49c0.62 0 1.21 0.08 1.77 0.25s1.05 0.41 1.48 0.73 0.79 0.73 1.08 1.21 0.48 1.04 0.57 1.67h-1.58c-0.17-0.83-0.56-1.47-1.17-1.89z" fill-rule="nonzero"/>
        <path d="m233.94 27.24v5.12h6.27v-5.12h1.59v11.91h-1.59v-5.45h-6.27v5.46h-1.59v-11.92h1.59z" fill-rule="nonzero"/>
        <path d="m246.07 27.24l6.27 9.66h0.03v-9.66h1.5v11.91h-1.73l-6.22-9.56h-0.03v9.56h-1.5v-11.91h1.68z" fill-rule="nonzero"/>
        <rect x="256.52" y="27.24" width="1.58" height="11.91"/>
        <path d="m262.35 27.24v5.94l6.04-5.94h2.05l-5.02 4.8 5.22 7.11h-2l-4.3-6.02-1.98 1.85v4.17h-1.59v-11.91h1.58z" fill-rule="nonzero"/>
        <path d="m284.82 38.28c-0.81 0.76-1.97 1.14-3.47 1.14-1.53 0-2.73-0.36-3.59-1.09s-1.29-1.89-1.29-3.48v-7.61h1.59v7.61c0 1.07 0.28 1.88 0.85 2.43s1.38 0.83 2.45 0.83c1.01 0 1.78-0.28 2.31-0.83s0.79-1.36 0.79-2.43v-7.61h1.59v7.61c-0.01 1.53-0.42 2.67-1.23 3.43z" fill-rule="nonzero"/>
        <path d="m290.24 27.24l6.27 9.66h0.03v-9.66h1.5v11.91h-1.73l-6.22-9.56h-0.03v9.56h-1.5v-11.91h1.68z" fill-rule="nonzero"/>
        <path d="m304.7 27.24c1.83 0 3.25 0.47 4.24 1.4s1.49 2.36 1.49 4.27c0 1-0.11 1.89-0.33 2.66s-0.57 1.42-1.03 1.95c-0.47 0.53-1.06 0.93-1.78 1.21s-1.58 0.42-2.57 0.42h-4.09v-11.91h4.07zm0.14 10.58c0.18 0 0.4-0.01 0.67-0.04s0.55-0.09 0.85-0.2 0.6-0.26 0.89-0.46 0.56-0.47 0.79-0.82c0.23-0.34 0.43-0.78 0.58-1.29 0.15-0.52 0.23-1.14 0.23-1.88 0-0.71-0.07-1.35-0.21-1.91s-0.37-1.04-0.68-1.44c-0.32-0.39-0.73-0.69-1.23-0.9s-1.12-0.31-1.85-0.31h-2.67v9.24h2.63v0.01z" fill-rule="nonzero"/>
        <path d="m326.11 39.16l-2.72-10.01h-0.03l-2.75 10.01h-1.65l-3.05-11.91h1.62l2.34 9.91h0.03l2.67-9.91h1.72l2.64 9.91h0.03l2.42-9.91h1.58l-3.19 11.91h-1.66z" fill-rule="nonzero"/>
        <rect x="332.52" y="27.24" width="1.58" height="11.91"/>
        <path d="m342.37 27.24c1.13 0 2.02 0.28 2.66 0.83 0.64 0.56 0.96 1.32 0.96 2.28 0 0.72-0.16 1.36-0.49 1.9s-0.85 0.92-1.58 1.12v0.03c0.34 0.07 0.63 0.18 0.84 0.33 0.22 0.16 0.39 0.34 0.52 0.56s0.22 0.46 0.28 0.73 0.11 0.55 0.14 0.83c0.02 0.29 0.04 0.58 0.05 0.88s0.04 0.6 0.08 0.88c0.04 0.29 0.11 0.56 0.19 0.83 0.08 0.26 0.21 0.49 0.38 0.69h-1.77c-0.11-0.12-0.19-0.29-0.23-0.5s-0.06-0.45-0.07-0.71-0.02-0.54-0.03-0.84-0.04-0.6-0.1-0.88c-0.04-0.29-0.1-0.56-0.17-0.83-0.07-0.26-0.17-0.49-0.32-0.68-0.14-0.19-0.33-0.35-0.57-0.47-0.23-0.12-0.55-0.18-0.93-0.18h-3.87v5.09h-1.59v-11.89h5.62zm0.33 5.41c0.33-0.06 0.63-0.17 0.88-0.33s0.45-0.38 0.6-0.65 0.23-0.63 0.23-1.06c0-0.6-0.17-1.09-0.5-1.47s-0.87-0.57-1.62-0.57h-3.94v4.15h3.3c0.37 0.01 0.72-0.01 1.05-0.07z" fill-rule="nonzero"/>
        <path d="m346.92 28.58v-1.34h9.53v1.34h-3.97v10.58h-1.58v-10.58h-3.98z" fill-rule="nonzero"/>
        <path d="m363.73 28.87c-0.53-0.38-1.2-0.58-2.03-0.58-0.33 0-0.66 0.03-0.98 0.1s-0.61 0.18-0.86 0.33c-0.25 0.16-0.45 0.36-0.6 0.63-0.15 0.26-0.23 0.59-0.23 0.98 0 0.37 0.11 0.66 0.33 0.89s0.51 0.41 0.87 0.56 0.77 0.26 1.23 0.36 0.92 0.2 1.39 0.31 0.94 0.24 1.39 0.39c0.46 0.15 0.86 0.35 1.23 0.61 0.36 0.26 0.65 0.58 0.87 0.97s0.33 0.88 0.33 1.47c0 0.63-0.14 1.18-0.43 1.63-0.28 0.45-0.65 0.82-1.09 1.1s-0.94 0.49-1.49 0.62-1.1 0.19-1.64 0.19c-0.67 0-1.3-0.08-1.89-0.25-0.6-0.17-1.12-0.42-1.57-0.76s-0.81-0.77-1.07-1.3-0.39-1.15-0.39-1.88h1.5c0 0.5 0.1 0.93 0.29 1.29s0.45 0.66 0.77 0.89 0.69 0.41 1.11 0.52 0.86 0.17 1.3 0.17c0.36 0 0.71-0.03 1.08-0.1 0.36-0.07 0.69-0.18 0.98-0.34s0.52-0.38 0.7-0.66 0.27-0.63 0.27-1.07c0-0.41-0.11-0.74-0.33-1s-0.51-0.46-0.87-0.63c-0.36-0.16-0.77-0.29-1.23-0.39s-0.92-0.2-1.39-0.31c-0.47-0.1-0.94-0.23-1.39-0.37-0.46-0.14-0.86-0.32-1.23-0.55-0.36-0.23-0.65-0.52-0.87-0.88s-0.33-0.81-0.33-1.36c0-0.6 0.12-1.12 0.37-1.56 0.24-0.44 0.57-0.8 0.98-1.08s0.87-0.5 1.38-0.63c0.52-0.14 1.05-0.21 1.59-0.21 0.61 0 1.18 0.07 1.7 0.22 0.52 0.14 0.98 0.37 1.38 0.68 0.39 0.31 0.71 0.7 0.93 1.18s0.35 1.04 0.38 1.69h-1.5c-0.1-0.87-0.41-1.48-0.94-1.87z" fill-rule="nonzero"/>
        <path d="m375.77 28.93c-0.61-0.42-1.33-0.63-2.16-0.63-0.71 0-1.32 0.13-1.83 0.4s-0.92 0.63-1.25 1.08-0.57 0.96-0.73 1.54-0.23 1.18-0.23 1.8c0 0.68 0.08 1.32 0.23 1.93 0.16 0.61 0.4 1.13 0.73 1.58s0.75 0.81 1.26 1.08c0.51 0.26 1.12 0.4 1.83 0.4 0.52 0 0.99-0.09 1.39-0.26 0.41-0.17 0.76-0.41 1.05-0.72s0.53-0.67 0.69-1.09c0.17-0.42 0.27-0.88 0.3-1.37h1.58c-0.16 1.5-0.67 2.67-1.55 3.5s-2.08 1.25-3.6 1.25c-0.92 0-1.73-0.16-2.42-0.48s-1.26-0.75-1.72-1.31-0.8-1.21-1.03-1.97-0.34-1.57-0.34-2.44 0.12-1.68 0.37-2.44c0.24-0.76 0.6-1.42 1.08-1.99 0.47-0.57 1.06-1.01 1.77-1.34s1.51-0.49 2.43-0.49c0.62 0 1.21 0.08 1.77 0.25s1.05 0.41 1.48 0.73 0.79 0.73 1.08 1.21 0.48 1.04 0.57 1.67h-1.58c-0.17-0.83-0.56-1.47-1.17-1.89z" fill-rule="nonzero"/>
        <path d="m382.2 27.24v5.12h6.27v-5.12h1.59v11.91h-1.59v-5.45h-6.27v5.46h-1.59v-11.92h1.59z" fill-rule="nonzero"/>
        <path d="m397.65 27.24l4.65 11.91h-1.75l-1.3-3.59h-5.04l-1.33 3.59h-1.62l4.64-11.91h1.75zm1.1 6.99l-1.99-5.55h-0.03l-2.02 5.55h4.04z" fill-rule="nonzero"/>
        <path d="m411.29 27.24v1.34h-6.24v3.79h5.47v1.33h-5.47v5.46h-1.59v-11.92h7.83z" fill-rule="nonzero"/>
        <path d="m411.78 28.58v-1.34h9.53v1.34h-3.97v10.58h-1.58v-10.58h-3.98z" fill-rule="nonzero"/>
        <path d="m204.64 46.71c1.83 0 3.25 0.47 4.24 1.4s1.49 2.36 1.49 4.27c0 1-0.11 1.89-0.33 2.66s-0.57 1.42-1.03 1.95c-0.47 0.53-1.06 0.93-1.78 1.21s-1.58 0.42-2.57 0.42h-4.09v-11.91h4.07zm0.13 10.57c0.18 0 0.4-0.01 0.67-0.04s0.55-0.09 0.85-0.2 0.6-0.26 0.89-0.46 0.56-0.47 0.79-0.82c0.23-0.34 0.43-0.78 0.58-1.29 0.15-0.52 0.23-1.14 0.23-1.88 0-0.71-0.07-1.35-0.21-1.91s-0.37-1.04-0.68-1.44c-0.32-0.39-0.73-0.69-1.23-0.9s-1.12-0.31-1.85-0.31h-2.67v9.24h2.63v0.01z" fill="#f99b1c" fill-rule="nonzero"/>
        <path d="m217.9 46.71c1.13 0 2.02 0.28 2.66 0.83 0.64 0.56 0.96 1.32 0.96 2.28 0 0.72-0.16 1.36-0.49 1.9s-0.85 0.92-1.58 1.12v0.03c0.34 0.07 0.63 0.18 0.84 0.33 0.22 0.16 0.39 0.34 0.52 0.56s0.22 0.46 0.28 0.73 0.11 0.55 0.14 0.83c0.02 0.29 0.04 0.58 0.05 0.88s0.04 0.6 0.08 0.88c0.04 0.29 0.11 0.56 0.19 0.83 0.08 0.26 0.21 0.49 0.38 0.69h-1.77c-0.11-0.12-0.19-0.29-0.23-0.5s-0.06-0.45-0.07-0.71-0.02-0.54-0.03-0.84-0.04-0.6-0.1-0.88c-0.04-0.29-0.1-0.56-0.17-0.83-0.07-0.26-0.17-0.49-0.32-0.68-0.14-0.19-0.33-0.35-0.57-0.47-0.23-0.12-0.55-0.18-0.93-0.18h-3.87v5.09h-1.59v-11.89h5.62zm0.33 5.4c0.33-0.06 0.63-0.17 0.88-0.33s0.45-0.38 0.6-0.65 0.23-0.63 0.23-1.06c0-0.6-0.17-1.09-0.5-1.47s-0.87-0.57-1.62-0.57h-3.94v4.15h3.3c0.37 0.01 0.72-0.01 1.05-0.07z" fill="#f99b1c" fill-rule="nonzero"/>
        <path d="m231.94 46.71v1.34h-6.64v3.79h6.19v1.33h-6.19v4.12h6.69v1.34h-8.27v-11.92h8.22z" fill="#f99b1c" fill-rule="nonzero"/>
        <path d="m239.88 48.33c-0.53-0.38-1.2-0.58-2.03-0.58-0.33 0-0.66 0.03-0.98 0.1s-0.61 0.18-0.86 0.33c-0.25 0.16-0.45 0.36-0.6 0.63-0.15 0.26-0.23 0.59-0.23 0.98 0 0.37 0.11 0.66 0.33 0.89s0.51 0.41 0.87 0.56 0.77 0.26 1.23 0.36 0.92 0.2 1.39 0.31 0.94 0.24 1.39 0.39c0.46 0.15 0.86 0.35 1.23 0.61 0.36 0.26 0.65 0.58 0.87 0.97s0.33 0.88 0.33 1.47c0 0.63-0.14 1.18-0.43 1.63-0.28 0.45-0.65 0.82-1.09 1.1s-0.94 0.49-1.49 0.62-1.1 0.19-1.64 0.19c-0.67 0-1.3-0.08-1.89-0.25-0.6-0.17-1.12-0.42-1.57-0.76s-0.81-0.77-1.07-1.3-0.39-1.15-0.39-1.88h1.5c0 0.5 0.1 0.93 0.29 1.29s0.45 0.66 0.77 0.89 0.69 0.41 1.11 0.52 0.86 0.17 1.3 0.17c0.36 0 0.71-0.03 1.08-0.1 0.36-0.07 0.69-0.18 0.98-0.34s0.52-0.38 0.7-0.66 0.27-0.63 0.27-1.07c0-0.41-0.11-0.74-0.33-1s-0.51-0.46-0.87-0.63c-0.36-0.16-0.77-0.29-1.23-0.39s-0.92-0.2-1.39-0.31c-0.47-0.1-0.94-0.23-1.39-0.37-0.46-0.14-0.87-0.32-1.23-0.55s-0.65-0.52-0.87-0.88-0.33-0.81-0.33-1.36c0-0.6 0.12-1.12 0.37-1.56 0.24-0.44 0.57-0.8 0.98-1.08s0.87-0.5 1.38-0.63c0.52-0.14 1.05-0.21 1.59-0.21 0.61 0 1.18 0.07 1.7 0.22 0.52 0.14 0.98 0.37 1.38 0.68 0.39 0.31 0.71 0.7 0.93 1.18 0.23 0.47 0.35 1.04 0.38 1.69h-1.5c-0.11-0.86-0.42-1.48-0.94-1.87z" fill="#f99b1c" fill-rule="nonzero"/>
        <path d="m248.81 46.71c1.83 0 3.25 0.47 4.24 1.4s1.49 2.36 1.49 4.27c0 1-0.11 1.89-0.33 2.66s-0.57 1.42-1.03 1.95c-0.47 0.53-1.06 0.93-1.78 1.21s-1.58 0.42-2.57 0.42h-4.09v-11.91h4.07zm0.13 10.57c0.18 0 0.4-0.01 0.67-0.04s0.55-0.09 0.85-0.2 0.6-0.26 0.89-0.46 0.56-0.47 0.79-0.82c0.23-0.34 0.43-0.78 0.58-1.29 0.15-0.52 0.23-1.14 0.23-1.88 0-0.71-0.07-1.35-0.21-1.91s-0.37-1.04-0.68-1.44c-0.32-0.39-0.73-0.69-1.23-0.9s-1.12-0.31-1.85-0.31h-2.67v9.24h2.63v0.01z" fill="#f99b1c" fill-rule="nonzero"/>
        <path d="m264.69 46.71v1.34h-6.64v3.79h6.19v1.33h-6.19v4.12h6.69v1.34h-8.27v-11.92h8.22z" fill="#f99b1c" fill-rule="nonzero"/>
        <path d="m268.32 46.71l6.27 9.66h0.03v-9.66h1.5v11.91h-1.73l-6.22-9.56h-0.03v9.56h-1.5v-11.91h1.68z" fill="#f99b1c" fill-rule="nonzero"/>
        <path d="m206.6 76.3c-0.62 0.58-1.51 0.88-2.66 0.88-1.18 0-2.1-0.28-2.76-0.84s-0.99-1.45-0.99-2.67v-5.83h1.21v5.83c0 0.82 0.22 1.44 0.65 1.86s1.06 0.63 1.88 0.63c0.78 0 1.37-0.21 1.77-0.63s0.61-1.04 0.61-1.86v-5.83h1.22v5.83c0.01 1.16-0.31 2.04-0.93 2.63z" fill-rule="nonzero"/>
        <path d="m211.03 67.84l4.81 7.4h0.03v-7.4h1.15v9.13h-1.33l-4.77-7.33h-0.03v7.33h-1.15v-9.13h1.29z" fill-rule="nonzero"/>
        <rect x="219.3" y="67.84" width="1.22" height="9.13"/>
        <path d="m225.04 76.97l-3.21-9.13h1.3l2.61 7.91h0.03l2.63-7.91h1.27l-3.25 9.13h-1.38z" fill-rule="nonzero"/>
        <path d="m237.22 67.84v1.02h-5.09v2.9h4.74v1.02h-4.74v3.16h5.13v1.02h-6.34v-9.13h6.3v0.01z" fill-rule="nonzero"/>
        <path d="m243.29 67.84c0.87 0 1.55 0.21 2.04 0.64s0.74 1.01 0.74 1.75c0 0.55-0.13 1.04-0.38 1.46s-0.65 0.7-1.21 0.86v0.02c0.26 0.05 0.48 0.14 0.65 0.26s0.3 0.26 0.4 0.43 0.17 0.35 0.22 0.56 0.08 0.42 0.11 0.64c0.02 0.22 0.03 0.45 0.04 0.68s0.03 0.46 0.06 0.68 0.08 0.43 0.15 0.63c0.06 0.2 0.16 0.38 0.29 0.53h-1.36c-0.09-0.09-0.14-0.22-0.17-0.38s-0.05-0.34-0.06-0.54-0.02-0.41-0.03-0.65c-0.01-0.23-0.03-0.46-0.08-0.68-0.03-0.22-0.08-0.43-0.13-0.63s-0.13-0.38-0.24-0.52c-0.11-0.15-0.26-0.27-0.43-0.36-0.18-0.09-0.42-0.13-0.72-0.13h-2.97v3.9h-1.21v-9.13h4.29v-0.02zm0.26 4.14c0.26-0.04 0.48-0.12 0.67-0.25s0.35-0.29 0.46-0.5c0.12-0.21 0.17-0.48 0.17-0.81 0-0.46-0.13-0.84-0.38-1.13-0.26-0.29-0.67-0.43-1.24-0.43h-3.02v3.18h2.53c0.28 0 0.55-0.02 0.81-0.06z" fill-rule="nonzero"/>
        <path d="m252.6 69.08c-0.41-0.3-0.92-0.44-1.55-0.44-0.26 0-0.51 0.02-0.75 0.08-0.25 0.05-0.47 0.14-0.66 0.26s-0.35 0.28-0.46 0.48c-0.12 0.2-0.17 0.45-0.17 0.75 0 0.28 0.08 0.51 0.25 0.68 0.17 0.18 0.39 0.32 0.67 0.43s0.59 0.2 0.94 0.28c0.35 0.07 0.71 0.15 1.07 0.24 0.36 0.08 0.72 0.18 1.07 0.3s0.66 0.27 0.94 0.47 0.5 0.44 0.67 0.74 0.25 0.67 0.25 1.13c0 0.48-0.11 0.9-0.33 1.25s-0.5 0.63-0.84 0.84-0.72 0.38-1.14 0.47c-0.42 0.1-0.84 0.15-1.26 0.15-0.51 0-1-0.06-1.45-0.19-0.46-0.13-0.86-0.32-1.2-0.58-0.35-0.26-0.62-0.59-0.82-1-0.2-0.4-0.3-0.88-0.3-1.44h1.15c0 0.38 0.07 0.71 0.22 0.99s0.35 0.51 0.59 0.68c0.24 0.18 0.53 0.31 0.85 0.4 0.32 0.08 0.66 0.13 1 0.13 0.27 0 0.55-0.03 0.82-0.08 0.28-0.05 0.53-0.14 0.75-0.26s0.4-0.29 0.54-0.51 0.2-0.49 0.2-0.82c0-0.31-0.08-0.57-0.25-0.77s-0.39-0.36-0.67-0.48-0.59-0.22-0.94-0.3-0.71-0.16-1.07-0.24-0.72-0.17-1.07-0.28-0.66-0.25-0.94-0.42-0.5-0.4-0.67-0.68-0.25-0.62-0.25-1.04c0-0.46 0.09-0.86 0.28-1.19 0.19-0.34 0.44-0.61 0.75-0.83s0.66-0.38 1.06-0.49 0.8-0.16 1.22-0.16c0.47 0 0.9 0.05 1.3 0.17 0.4 0.11 0.75 0.29 1.06 0.53 0.3 0.24 0.54 0.54 0.72 0.9 0.17 0.36 0.27 0.79 0.29 1.3h-1.15c-0.08-0.68-0.32-1.15-0.72-1.45z" fill-rule="nonzero"/>
        <rect x="256.63" y="67.84" width="1.22" height="9.13"/>
        <path d="m259.19 68.86v-1.02h7.3v1.02h-3.04v8.11h-1.22v-8.11h-3.04z" fill-rule="nonzero"/>
        <path d="m271.54 76.97h-1.22v-3.74l-3.53-5.4h1.44l2.74 4.35 2.67-4.35h1.38l-3.49 5.4 0.01 3.74z" fill-rule="nonzero"/>
        <path d="m279.91 70.6c0.18-0.57 0.46-1.08 0.82-1.53 0.37-0.44 0.82-0.8 1.37-1.06s1.18-0.4 1.91-0.4c0.72 0 1.36 0.13 1.91 0.4 0.55 0.26 1 0.62 1.37 1.06s0.64 0.95 0.82 1.53 0.28 1.18 0.28 1.8-0.09 1.22-0.28 1.8-0.46 1.09-0.82 1.53c-0.37 0.44-0.82 0.79-1.37 1.05s-1.18 0.39-1.91 0.39c-0.72 0-1.36-0.13-1.91-0.39s-1-0.61-1.37-1.05-0.64-0.95-0.82-1.53-0.27-1.18-0.27-1.8 0.09-1.22 0.27-1.8zm1.12 3.16c0.12 0.45 0.31 0.85 0.56 1.21 0.26 0.36 0.58 0.65 0.99 0.86s0.88 0.33 1.43 0.33 1.03-0.11 1.43-0.33 0.73-0.51 0.98-0.86c0.26-0.36 0.44-0.76 0.56-1.21s0.18-0.9 0.18-1.36-0.06-0.91-0.18-1.36-0.31-0.85-0.56-1.21-0.58-0.65-0.98-0.86c-0.4-0.22-0.88-0.33-1.43-0.33s-1.03 0.11-1.43 0.33-0.73 0.5-0.99 0.86-0.44 0.76-0.56 1.21-0.18 0.9-0.18 1.36 0.06 0.92 0.18 1.36z" fill-rule="nonzero"/>
        <path d="m296.14 67.84v1.02h-4.78v2.9h4.2v1.02h-4.2v4.18h-1.21v-9.13h5.99v0.01z" fill-rule="nonzero"/>
        <path d="m305.39 67.84l3.57 9.13h-1.34l-1-2.75h-3.86l-1.02 2.75h-1.24l3.56-9.13h1.33zm0.85 5.35l-1.52-4.26h-0.03l-1.55 4.26h3.1z" fill-rule="nonzero"/>
        <path d="m314.13 67.84c0.92 0 1.62 0.24 2.09 0.71s0.71 1.14 0.71 1.99-0.24 1.52-0.71 2-1.17 0.71-2.09 0.7h-2.79v3.74h-1.21v-9.13l4-0.01zm-0.41 4.37c0.69 0.01 1.2-0.13 1.52-0.42s0.48-0.71 0.48-1.25-0.16-0.96-0.48-1.25c-0.32-0.28-0.82-0.43-1.52-0.43h-2.38v3.35h2.38z" fill-rule="nonzero"/>
        <path d="m322.68 67.84c0.92 0 1.62 0.24 2.09 0.71s0.71 1.14 0.71 1.99-0.24 1.52-0.71 2-1.17 0.71-2.09 0.7h-2.79v3.74h-1.21v-9.13l4-0.01zm-0.4 4.37c0.69 0.01 1.2-0.13 1.52-0.42s0.48-0.71 0.48-1.25-0.16-0.96-0.48-1.25c-0.32-0.28-0.82-0.43-1.52-0.43h-2.38v3.35h2.38z" fill-rule="nonzero"/>
        <path d="m328.45 67.84v8.11h4.83v1.02h-6.05v-9.13h1.22z" fill-rule="nonzero"/>
        <rect x="334.66" y="67.84" width="1.22" height="9.13"/>
        <path d="m344.5 67.84v1.02h-5.09v2.9h4.74v1.02h-4.74v3.16h5.13v1.02h-6.34v-9.13h6.3v0.01z" fill-rule="nonzero"/>
        <path d="m349.41 67.84c1.41 0 2.49 0.36 3.25 1.07 0.76 0.72 1.14 1.81 1.14 3.28 0 0.77-0.09 1.45-0.26 2.04s-0.43 1.09-0.79 1.5c-0.36 0.4-0.81 0.71-1.37 0.93-0.55 0.21-1.21 0.32-1.97 0.32h-3.13v-9.13h3.13v-0.01zm0.11 8.1c0.14 0 0.31-0.01 0.51-0.03s0.42-0.07 0.65-0.15 0.46-0.2 0.68-0.35c0.23-0.15 0.43-0.36 0.61-0.63 0.18-0.26 0.33-0.6 0.44-0.99 0.12-0.4 0.17-0.88 0.17-1.44 0-0.55-0.05-1.03-0.16-1.46s-0.28-0.8-0.52-1.1-0.56-0.53-0.94-0.69-0.86-0.24-1.42-0.24h-2.05v7.09h2.03v-0.01z" fill-rule="nonzero"/>
        <path d="m363.95 69.08c-0.41-0.3-0.92-0.44-1.55-0.44-0.26 0-0.51 0.02-0.75 0.08-0.25 0.05-0.47 0.14-0.66 0.26s-0.35 0.28-0.46 0.48c-0.12 0.2-0.17 0.45-0.17 0.75 0 0.28 0.08 0.51 0.25 0.68 0.17 0.18 0.39 0.32 0.67 0.43s0.59 0.2 0.94 0.28 0.71 0.15 1.07 0.24c0.36 0.08 0.72 0.18 1.07 0.3s0.66 0.27 0.94 0.47 0.5 0.44 0.67 0.74 0.25 0.67 0.25 1.13c0 0.48-0.11 0.9-0.33 1.25s-0.5 0.63-0.84 0.84-0.72 0.38-1.14 0.47-0.84 0.15-1.26 0.15c-0.51 0-1-0.06-1.45-0.19s-0.86-0.32-1.2-0.58c-0.35-0.26-0.62-0.59-0.82-1-0.2-0.4-0.3-0.88-0.3-1.44h1.12c0 0.38 0.07 0.71 0.22 0.99s0.35 0.51 0.59 0.68c0.24 0.18 0.53 0.31 0.85 0.4 0.32 0.08 0.66 0.13 1 0.13 0.27 0 0.55-0.03 0.82-0.08 0.28-0.05 0.53-0.14 0.75-0.26s0.4-0.29 0.54-0.51 0.2-0.49 0.2-0.82c0-0.31-0.08-0.57-0.25-0.77s-0.39-0.36-0.67-0.48-0.59-0.22-0.94-0.3-0.71-0.16-1.07-0.24-0.72-0.17-1.07-0.28-0.66-0.25-0.94-0.42-0.5-0.4-0.67-0.68-0.25-0.62-0.25-1.04c0-0.46 0.09-0.86 0.28-1.19 0.19-0.34 0.44-0.61 0.75-0.83s0.66-0.38 1.06-0.49 0.8-0.16 1.22-0.16c0.47 0 0.9 0.05 1.3 0.17 0.4 0.11 0.75 0.29 1.06 0.53 0.3 0.24 0.54 0.54 0.72 0.9 0.17 0.36 0.27 0.79 0.29 1.3h-1.15c-0.05-0.68-0.29-1.15-0.69-1.45z" fill-rule="nonzero"/>
        <path d="m373.45 69.13c-0.46-0.32-1.02-0.48-1.66-0.48-0.55 0-1.01 0.1-1.4 0.31-0.39 0.2-0.71 0.48-0.96 0.83s-0.44 0.74-0.56 1.18c-0.12 0.45-0.18 0.91-0.18 1.38 0 0.52 0.06 1.01 0.18 1.48 0.12 0.46 0.3 0.87 0.56 1.22s0.57 0.62 0.97 0.82c0.39 0.21 0.86 0.31 1.41 0.31 0.4 0 0.76-0.07 1.07-0.2s0.58-0.32 0.81-0.55 0.4-0.51 0.53-0.84c0.13-0.32 0.2-0.67 0.23-1.05h1.21c-0.12 1.15-0.52 2.05-1.19 2.68-0.67 0.64-1.59 0.96-2.76 0.96-0.71 0-1.33-0.12-1.85-0.36-0.53-0.24-0.97-0.58-1.32-1-0.35-0.43-0.61-0.93-0.79-1.51-0.17-0.58-0.26-1.2-0.26-1.87s0.09-1.29 0.28-1.87 0.46-1.09 0.82-1.53c0.36-0.43 0.81-0.78 1.36-1.03 0.54-0.25 1.16-0.38 1.86-0.38 0.48 0 0.93 0.06 1.36 0.19s0.81 0.31 1.14 0.56 0.61 0.56 0.83 0.93 0.37 0.8 0.43 1.29h-1.22c-0.14-0.66-0.44-1.15-0.9-1.47z" fill-rule="nonzero"/>
        <rect x="377.48" y="67.84" width="1.22" height="9.13"/>
        <path d="m387.32 67.84v1.02h-5.09v2.9h4.74v1.02h-4.74v3.16h5.13v1.02h-6.34v-9.13h6.3v0.01z" fill-rule="nonzero"/>
        <path d="m390.37 67.84l4.81 7.4h0.03v-7.4h1.15v9.13h-1.33l-4.77-7.33h-0.03v7.33h-1.15v-9.13h1.29z" fill-rule="nonzero"/>
        <path d="m404.12 69.13c-0.46-0.32-1.02-0.48-1.66-0.48-0.55 0-1.01 0.1-1.4 0.31-0.39 0.2-0.71 0.48-0.96 0.83s-0.44 0.74-0.56 1.18c-0.12 0.45-0.18 0.91-0.18 1.38 0 0.52 0.06 1.01 0.18 1.48 0.12 0.46 0.3 0.87 0.56 1.22s0.57 0.62 0.97 0.82c0.39 0.21 0.86 0.31 1.41 0.31 0.4 0 0.76-0.07 1.07-0.2s0.58-0.32 0.81-0.55 0.4-0.51 0.53-0.84c0.13-0.32 0.2-0.67 0.23-1.05h1.21c-0.12 1.15-0.52 2.05-1.19 2.68-0.67 0.64-1.59 0.96-2.76 0.96-0.71 0-1.33-0.12-1.85-0.36-0.53-0.24-0.97-0.58-1.32-1-0.35-0.43-0.61-0.93-0.79-1.51-0.17-0.58-0.26-1.2-0.26-1.87s0.09-1.29 0.28-1.87 0.46-1.09 0.82-1.53c0.36-0.43 0.81-0.78 1.36-1.03 0.54-0.25 1.16-0.38 1.86-0.38 0.48 0 0.93 0.06 1.36 0.19s0.81 0.31 1.14 0.56 0.61 0.56 0.83 0.93 0.37 0.8 0.43 1.29h-1.22c-0.14-0.66-0.44-1.15-0.9-1.47z" fill-rule="nonzero"/>
        <path d="m414.4 67.84v1.02h-5.09v2.9h4.74v1.02h-4.74v3.16h5.13v1.02h-6.34v-9.13h6.3v0.01z" fill-rule="nonzero"/>
        <path d="m421.03 69.08c-0.41-0.3-0.92-0.44-1.55-0.44-0.26 0-0.51 0.02-0.75 0.08-0.25 0.05-0.47 0.14-0.66 0.26s-0.35 0.28-0.46 0.48c-0.12 0.2-0.17 0.45-0.17 0.75 0 0.28 0.08 0.51 0.25 0.68 0.17 0.18 0.39 0.32 0.67 0.43s0.59 0.2 0.94 0.28 0.71 0.15 1.07 0.24c0.36 0.08 0.72 0.18 1.07 0.3s0.66 0.27 0.94 0.47 0.5 0.44 0.67 0.74 0.25 0.67 0.25 1.13c0 0.48-0.11 0.9-0.33 1.25s-0.5 0.63-0.84 0.84-0.72 0.38-1.14 0.47c-0.42 0.1-0.84 0.15-1.26 0.15-0.51 0-1-0.06-1.45-0.19-0.46-0.13-0.86-0.32-1.2-0.58-0.35-0.26-0.62-0.59-0.82-1-0.2-0.4-0.3-0.88-0.3-1.44h1.15c0 0.38 0.07 0.71 0.22 0.99s0.35 0.51 0.59 0.68c0.24 0.18 0.53 0.31 0.85 0.4 0.32 0.08 0.66 0.13 1 0.13 0.27 0 0.55-0.03 0.82-0.08 0.28-0.05 0.53-0.14 0.75-0.26s0.4-0.29 0.54-0.51 0.2-0.49 0.2-0.82c0-0.31-0.08-0.57-0.25-0.77s-0.39-0.36-0.67-0.48-0.59-0.22-0.94-0.3-0.71-0.16-1.07-0.24-0.72-0.17-1.07-0.28-0.66-0.25-0.94-0.42-0.5-0.4-0.67-0.68-0.25-0.62-0.25-1.04c0-0.46 0.09-0.86 0.28-1.19 0.19-0.34 0.44-0.61 0.75-0.83s0.66-0.38 1.06-0.49 0.8-0.16 1.22-0.16c0.47 0 0.9 0.05 1.3 0.17 0.4 0.11 0.75 0.29 1.06 0.53 0.3 0.24 0.54 0.54 0.72 0.9 0.17 0.36 0.27 0.79 0.29 1.3h-1.15c-0.08-0.68-0.31-1.15-0.72-1.45z" fill-rule="nonzero"/>
    </g>
</svg>
